# xmcd
#
# Track frame offsets: 
#        150
#        12026
#        22585
#        35116
#        48056
#        60233
#        76290
#        87707
#        99005
#        108660
#
# Disc length: 1728 seconds
#
# Revision: 0
# Processed by: cddbd v1.5.2PL0 Copyright (c) Steve Scherf et al.
# Submitted via: ExactAudioCopy v0.99pb4
#
DISCID=6506be0a
DTITLE=The Shivering Denizens - The Shivering Denizens
DYEAR=2009
DGENRE=honkytonk
TTITLE0=The Shivering Denizen
TTITLE1=Vixen Blues
TTITLE2=Angel in My Headlights
TTITLE3=Good Times at the Gates of Hell
TTITLE4=Honky Tonk Suicide
TTITLE5=Cell Block 69
TTITLE6=Twister
TTITLE7=Candidate 4 Change
TTITLE8=Smokin Blues
TTITLE9=Humptulips
EXTD=
EXTT0=
EXTT1=
EXTT2=
EXTT3=
EXTT4=
EXTT5=
EXTT6=
EXTT7=
EXTT8=
EXTT9=
PLAYORDER=
